<?xml version="1.0" encoding="UTF-8"?><svg id="Ebene_1" xmlns="http://www.w3.org/2000/svg" viewBox="0 0 300 200"><defs><style>.cls-1{fill:#eb5a62;}.cls-2{fill:#71b4de;}.cls-3{fill:#ffd438;}.cls-4{fill:#fff;}</style></defs><g><path class="cls-4" d="M209.6,133.39c-6.2,10.11-14.9,18.52-25.25,24.37-4.54-7.92-13.07-13.27-22.82-13.27-12.62,0-23.2,8.95-25.69,20.85-19.2-3.96-35.51-15.77-45.43-31.95h119.19Z"/><path class="cls-4" d="M217.34,78.21H82.67c1.27-4.61,3.01-9.02,5.15-13.19,11.22-.68,20.13-10.03,20.13-21.42,0-.81-.04-1.61-.13-2.39,11.72-8.9,26.33-14.17,42.18-14.17,.24,0,.48,0,.72,0-.83,2.72-1.28,5.59-1.28,8.58,0,16.15,13.14,29.28,29.28,29.28,10.24,0,19.27-5.28,24.5-13.28,6.49,7.61,11.37,16.65,14.12,26.58Z"/><path class="cls-4" d="M219.85,133.39c-7.29,13.92-18.63,25.41-32.45,32.88,.25,1.45,.39,2.95,.39,4.48,0,1.71-.17,3.38-.48,5,18.47-8.75,33.36-23.79,41.91-42.36h-9.38Zm-84.32,41.01c-24.08-4.49-44.34-19.97-55.37-41.01h-9.38c12.27,26.62,37.57,46.01,67.73,49.96-1.5-2.73-2.52-5.75-2.98-8.96ZM150,9.7c-19.04,0-36.66,6.1-51,16.47,2.32,1.66,4.29,3.77,5.78,6.21,12.81-9.01,28.41-14.3,45.23-14.3,1.74,0,3.45,.06,5.17,.17,2.22-3,5-5.57,8.18-7.54-4.35-.67-8.81-1.01-13.35-1.01Zm57.71,21.84c.18,1.33,.28,2.7,.28,4.08,0,2.42-.29,4.79-.86,7.04,9.31,9.8,16.13,21.99,19.43,35.54h8.62c-4.02-18.41-13.85-34.63-27.48-46.67ZM71.49,58.92c-2.95,6.06-5.21,12.53-6.68,19.29h8.62c1.24-5.1,2.98-10,5.17-14.66-2.68-1.06-5.09-2.64-7.11-4.63Z"/><path class="cls-2" d="M201.29,35.63c0,.49-.02,.96-.05,1.44-.21,3.43-1.2,6.65-2.78,9.49-3.85,6.93-11.25,11.64-19.73,11.64-12.44,0-22.57-10.13-22.57-22.57,0-2.88,.55-5.64,1.53-8.17,1.22-3.16,3.14-5.97,5.58-8.24,3.19-3.02,7.26-5.11,11.78-5.85,1.2-.2,2.42-.3,3.68-.3,8.29,0,15.55,4.49,19.46,11.16,1.97,3.35,3.1,7.25,3.1,11.4Z"/><path class="cls-1" d="M181.08,170.75c0,2.99-.67,5.82-1.88,8.35-3.14,6.61-9.88,11.2-17.67,11.2-5.63,0-10.71-2.39-14.28-6.22-2.26-2.41-3.91-5.39-4.71-8.7-.36-1.48-.55-3.03-.55-4.62,0-1.5,.17-2.97,.49-4.38,1.99-8.68,9.78-15.17,19.05-15.17,7.14,0,13.4,3.85,16.81,9.59,1.53,2.54,2.47,5.46,2.69,8.57,.03,.46,.05,.92,.05,1.39Z"/><path class="cls-3" d="M101.24,43.6c0,1.29-.17,2.54-.48,3.73-1.12,4.3-4.15,7.85-8.12,9.68-1.87,.86-3.95,1.34-6.15,1.34-1.67,0-3.28-.28-4.77-.8-2.74-.94-5.13-2.67-6.87-4.91-1.95-2.5-3.11-5.64-3.11-9.04,0-8.13,6.62-14.74,14.75-14.74,2.49,0,4.84,.62,6.9,1.72,2.53,1.34,4.63,3.41,6.02,5.93,1.16,2.1,1.82,4.52,1.82,7.09Z"/></g><g><path class="cls-4" d="M15.62,120.44h-5.99c-.27,0-.5-.09-.68-.28-.19-.19-.28-.41-.28-.68v-27.35c0-.27,.09-.49,.28-.68,.19-.19,.41-.28,.68-.28h12.44c1.55,0,2.97,.26,4.28,.78,1.31,.52,2.42,1.25,3.34,2.18,.92,.93,1.64,2.04,2.16,3.32s.78,2.69,.78,4.24c0,.85-.1,1.7-.3,2.54-.2,.84-.49,1.63-.86,2.38-.37,.75-.81,1.42-1.32,2.02s-1.08,1.1-1.72,1.5c-.21,.16-.35,.35-.42,.58-.07,.23-.02,.45,.14,.66,1.01,1.33,2.08,2.71,3.2,4.12,1.12,1.41,2.12,2.71,3,3.88,.16,.21,.2,.45,.12,.7-.08,.25-.25,.38-.52,.38h-7.44c-.27,0-.55-.07-.86-.22-.31-.15-.54-.33-.7-.54-.85-1.12-1.69-2.25-2.53-3.4-.84-1.15-1.67-2.31-2.49-3.48-.16-.21-.38-.39-.68-.54-.29-.15-.57-.22-.84-.22h-.88c-.26,0-.49,.09-.68,.28-.19,.19-.28,.41-.28,.68v6.48c0,.27-.09,.49-.28,.68-.19,.19-.42,.28-.68,.28Zm1.92-15.75h4.22c.32,0,.65-.06,.99-.18,.34-.12,.66-.31,.95-.56,.29-.25,.53-.57,.72-.94,.19-.37,.28-.81,.28-1.32,0-.27-.05-.58-.14-.94-.09-.36-.25-.71-.48-1.04s-.53-.61-.91-.84c-.38-.23-.86-.34-1.41-.34h-4.22c-.26,0-.49,.09-.68,.28-.19,.19-.28,.41-.28,.68v4.24c0,.27,.09,.49,.28,.68s.41,.28,.68,.28Z"/><path class="cls-4" d="M46.65,92.08c.11-.24,.29-.45,.54-.62,.25-.17,.53-.26,.82-.26h5.6c.27,0,.53,.09,.78,.26,.25,.17,.43,.38,.54,.62l11.68,27.19c.11,.24,.09,.49-.06,.76-.15,.27-.43,.4-.86,.4h-6.84c-.29,0-.57-.09-.82-.26-.25-.17-.45-.38-.58-.62l-1.08-2.4c-.13-.24-.33-.45-.58-.62-.25-.17-.51-.26-.78-.26h-8.44c-.29,0-.57,.09-.82,.26-.25,.17-.43,.38-.54,.62l-1.12,2.4c-.11,.24-.29,.45-.54,.62-.25,.17-.51,.26-.78,.26h-6.88c-.13,0-.27-.03-.42-.08-.15-.05-.27-.13-.36-.24-.09-.11-.15-.24-.18-.4-.03-.16,.01-.35,.12-.56l11.6-27.07Zm2.36,17.39h3.56c.27,0,.46-.09,.58-.26,.12-.17,.11-.38-.02-.62-.27-.67-.59-1.45-.96-2.34-.37-.89-.72-1.73-1.04-2.5-.11-.24-.23-.36-.36-.36s-.25,.12-.36,.36l-2,4.84c-.11,.24-.11,.45,0,.62,.11,.17,.31,.26,.6,.26Z"/><path class="cls-4" d="M85.56,98.52h-5.6c-.27,0-.49,.09-.68,.28s-.28,.41-.28,.68v19.99c0,.27-.09,.49-.26,.68-.17,.19-.41,.28-.7,.28h-6c-.27,0-.49-.09-.68-.28s-.28-.41-.28-.68v-19.99c0-.27-.09-.49-.26-.68-.17-.19-.41-.28-.7-.28h-5.68c-.27,0-.49-.09-.68-.28-.19-.19-.28-.41-.28-.68v-5.44c0-.27,.09-.49,.28-.68,.19-.19,.41-.28,.68-.28h21.11c.29,0,.53,.09,.7,.28,.17,.19,.26,.41,.26,.68v5.44c0,.27-.09,.49-.26,.68-.17,.19-.41,.28-.7,.28Z"/><path class="cls-4" d="M117.19,113.88v5.64c0,.27-.09,.49-.28,.68-.19,.19-.41,.28-.68,.28h-13.8c-2.69,0-5.03-.39-7-1.18-1.97-.79-3.61-1.85-4.9-3.2-1.29-1.35-2.25-2.92-2.88-4.72-.63-1.8-.94-3.72-.94-5.78s.39-3.99,1.16-5.8c.77-1.81,1.83-3.39,3.18-4.74,1.35-1.35,2.92-2.41,4.72-3.2,1.8-.79,3.72-1.18,5.78-1.18s3.99,.39,5.8,1.18c1.81,.79,3.39,1.85,4.74,3.2,1.35,1.35,2.41,2.93,3.18,4.74,.77,1.81,1.16,3.75,1.16,5.8,0,1.28-.23,2.5-.68,3.66s-1.03,2.14-1.72,2.94c-.35,.48-.24,.72,.32,.72h1.88c.27,0,.49,.09,.68,.28s.28,.41,.28,.68Zm-15.62-1.2c.96,0,1.85-.19,2.69-.58,.84-.39,1.57-.9,2.21-1.54s1.14-1.39,1.5-2.24c.36-.85,.54-1.76,.54-2.72s-.18-1.87-.54-2.74c-.36-.87-.86-1.63-1.5-2.28-.64-.65-1.38-1.17-2.21-1.54-.84-.37-1.73-.56-2.69-.56s-1.85,.19-2.69,.56c-.84,.37-1.57,.89-2.21,1.54-.64,.65-1.14,1.41-1.5,2.28-.36,.87-.54,1.78-.54,2.74s.18,1.87,.54,2.72c.36,.85,.86,1.6,1.5,2.24s1.38,1.15,2.21,1.54c.84,.39,1.73,.58,2.69,.58Z"/><path class="cls-4" d="M120.99,92.16c0-.27,.09-.49,.28-.68,.19-.19,.41-.28,.68-.28h6.01c.26,0,.49,.09,.68,.28s.28,.41,.28,.68v16.19c0,1.04,.17,1.9,.5,2.58,.33,.68,.75,1.21,1.24,1.6,.49,.39,1.02,.66,1.59,.82s1.07,.24,1.53,.24,.96-.08,1.53-.24c.56-.16,1.08-.43,1.57-.82,.48-.39,.89-.92,1.22-1.6,.33-.68,.5-1.54,.5-2.58v-16.19c0-.27,.09-.49,.28-.68s.41-.28,.68-.28h6.01c.26,0,.49,.09,.68,.28,.19,.19,.28,.41,.28,.68v16.19c0,1.89-.3,3.61-.9,5.16-.6,1.55-1.46,2.87-2.57,3.96-1.12,1.09-2.46,1.94-4.03,2.54-1.57,.6-3.31,.9-5.23,.9s-3.66-.3-5.23-.9c-1.57-.6-2.91-1.45-4.03-2.54-1.12-1.09-1.98-2.41-2.6-3.96-.61-1.55-.92-3.27-.92-5.16v-16.19Z"/><path class="cls-4" d="M159.26,92.08c.11-.24,.29-.45,.54-.62,.25-.17,.53-.26,.82-.26h5.6c.27,0,.53,.09,.78,.26,.25,.17,.43,.38,.54,.62l11.68,27.19c.11,.24,.09,.49-.06,.76-.15,.27-.43,.4-.86,.4h-6.84c-.29,0-.57-.09-.82-.26-.25-.17-.45-.38-.58-.62l-1.08-2.4c-.13-.24-.33-.45-.58-.62-.25-.17-.51-.26-.78-.26h-8.44c-.29,0-.57,.09-.82,.26-.25,.17-.43,.38-.54,.62l-1.12,2.4c-.11,.24-.29,.45-.54,.62-.25,.17-.51,.26-.78,.26h-6.88c-.13,0-.27-.03-.42-.08-.15-.05-.27-.13-.36-.24-.09-.11-.15-.24-.18-.4-.03-.16,.01-.35,.12-.56l11.6-27.07Zm2.36,17.39h3.56c.27,0,.46-.09,.58-.26,.12-.17,.11-.38-.02-.62-.27-.67-.59-1.45-.96-2.34-.37-.89-.72-1.73-1.04-2.5-.11-.24-.23-.36-.36-.36s-.25,.12-.36,.36l-2,4.84c-.11,.24-.11,.45,0,.62,.11,.17,.31,.26,.6,.26Z"/><path class="cls-4" d="M182.09,119.48v-27.35c0-.27,.09-.49,.28-.68s.41-.28,.68-.28h10.92c4.19,0,7.61,1.23,10.28,3.68,1.44,1.33,2.53,2.92,3.28,4.76,.75,1.84,1.12,3.91,1.12,6.2s-.37,4.37-1.12,6.22c-.75,1.85-1.84,3.45-3.28,4.78-1.33,1.2-2.86,2.11-4.58,2.72-1.72,.61-3.62,.92-5.7,.92h-10.92c-.27,0-.49-.09-.68-.28-.19-.19-.28-.41-.28-.68Zm8.88-6.4h3c.75,0,1.52-.09,2.32-.28,.8-.19,1.52-.54,2.16-1.06s1.17-1.25,1.58-2.2c.41-.95,.62-2.18,.62-3.7s-.21-2.75-.62-3.7c-.41-.95-.95-1.68-1.6-2.2s-1.37-.87-2.16-1.06c-.79-.19-1.55-.28-2.3-.28h-3c-.27,0-.49,.09-.68,.28-.19,.19-.28,.41-.28,.68v12.56c0,.27,.09,.49,.28,.68,.19,.19,.41,.28,.68,.28Z"/><path class="cls-4" d="M220.43,120.44h-5.99c-.27,0-.5-.09-.68-.28-.19-.19-.28-.41-.28-.68v-27.35c0-.27,.09-.49,.28-.68,.19-.19,.41-.28,.68-.28h12.44c1.55,0,2.97,.26,4.28,.78,1.31,.52,2.42,1.25,3.34,2.18,.92,.93,1.64,2.04,2.16,3.32s.78,2.69,.78,4.24c0,.85-.1,1.7-.3,2.54-.2,.84-.49,1.63-.86,2.38-.37,.75-.81,1.42-1.32,2.02s-1.08,1.1-1.72,1.5c-.21,.16-.35,.35-.42,.58-.07,.23-.02,.45,.14,.66,1.01,1.33,2.08,2.71,3.2,4.12,1.12,1.41,2.12,2.71,3,3.88,.16,.21,.2,.45,.12,.7-.08,.25-.25,.38-.52,.38h-7.44c-.27,0-.55-.07-.86-.22-.31-.15-.54-.33-.7-.54-.85-1.12-1.69-2.25-2.53-3.4-.84-1.15-1.67-2.31-2.49-3.48-.16-.21-.38-.39-.68-.54-.29-.15-.57-.22-.84-.22h-.88c-.26,0-.49,.09-.68,.28-.19,.19-.28,.41-.28,.68v6.48c0,.27-.09,.49-.28,.68-.19,.19-.42,.28-.68,.28Zm1.92-15.75h4.22c.32,0,.65-.06,.99-.18,.34-.12,.66-.31,.95-.56,.29-.25,.53-.57,.72-.94,.19-.37,.28-.81,.28-1.32,0-.27-.05-.58-.14-.94-.09-.36-.25-.71-.48-1.04s-.53-.61-.91-.84c-.38-.23-.86-.34-1.41-.34h-4.22c-.26,0-.49,.09-.68,.28-.19,.19-.28,.41-.28,.68v4.24c0,.27,.09,.49,.28,.68s.41,.28,.68,.28Z"/><path class="cls-4" d="M251.47,92.08c.11-.24,.29-.45,.54-.62,.25-.17,.53-.26,.82-.26h5.6c.27,0,.53,.09,.78,.26,.25,.17,.43,.38,.54,.62l11.68,27.19c.11,.24,.09,.49-.06,.76-.15,.27-.43,.4-.86,.4h-6.84c-.29,0-.57-.09-.82-.26-.25-.17-.45-.38-.58-.62l-1.08-2.4c-.13-.24-.33-.45-.58-.62-.25-.17-.51-.26-.78-.26h-8.44c-.29,0-.57,.09-.82,.26-.25,.17-.43,.38-.54,.62l-1.12,2.4c-.11,.24-.29,.45-.54,.62-.25,.17-.51,.26-.78,.26h-6.88c-.13,0-.27-.03-.42-.08-.15-.05-.27-.13-.36-.24-.09-.11-.15-.24-.18-.4-.03-.16,.01-.35,.12-.56l11.6-27.07Zm2.36,17.39h3.56c.27,0,.46-.09,.58-.26,.12-.17,.11-.38-.02-.62-.27-.67-.59-1.45-.96-2.34-.37-.89-.72-1.73-1.04-2.5-.11-.24-.23-.36-.36-.36s-.25,.12-.36,.36l-2,4.84c-.11,.24-.11,.45,0,.62,.11,.17,.31,.26,.6,.26Z"/><path class="cls-4" d="M290.37,98.52h-5.6c-.27,0-.49,.09-.68,.28s-.28,.41-.28,.68v19.99c0,.27-.09,.49-.26,.68-.17,.19-.41,.28-.7,.28h-6c-.27,0-.49-.09-.68-.28s-.28-.41-.28-.68v-19.99c0-.27-.09-.49-.26-.68-.17-.19-.41-.28-.7-.28h-5.68c-.27,0-.49-.09-.68-.28-.19-.19-.28-.41-.28-.68v-5.44c0-.27,.09-.49,.28-.68,.19-.19,.41-.28,.68-.28h21.11c.29,0,.53,.09,.7,.28,.17,.19,.26,.41,.26,.68v5.44c0,.27-.09,.49-.26,.68-.17,.19-.41,.28-.7,.28Z"/></g></svg>